# xmcd CD database file
#
# Track frame offsets:
#	150
#	13128
#	20583
#	31778
#	44474
#	61952
#	73986
#	88069
#	98704
#	107999
#	117549
#
# Disc length: 1742 seconds
#
# Revision: 0
# Processed by: cddbd v1.5.1PL2 Copyright (c) Steve Scherf et al.
# Submitted via: CDex 1.51
#
DISCID=9806cc0b
DTITLE=The Allen Brothers - Sweet Rumors
DYEAR=1900
DGENRE=Country
TTITLE0=How Can We
TTITLE1=My Gal Annie
TTITLE2=Storms Never Last
TTITLE3=Bluegrass Bolero
TTITLE4=She's Country
TTITLE5=Wildwood Flower Blues
TTITLE6=Jody
TTITLE7=When Someone Wants To Leave
TTITLE8=Who Done It
TTITLE9=You Will Always Be Untrue
TTITLE10=Pretty Memory
EXTD=
EXTT0=
EXTT1=
EXTT2=
EXTT3=
EXTT4=
EXTT5=
EXTT6=
EXTT7=
EXTT8=
EXTT9=
EXTT10=
PLAYORDER=
